<svg width="200" height="200" viewBox="0 0 200 200" xmlns="http://www.w3.org/2000/svg">
  <defs>
    <linearGradient id="bgGrad4" x1="0%" y1="0%" x2="100%" y2="100%">
      <stop offset="0%" style="stop-color:#f8f8f5"/>
      <stop offset="100%" style="stop-color:#f0efe8"/>
    </linearGradient>
    <clipPath id="circleClip4">
      <circle cx="100" cy="100" r="90"/>
    </clipPath>
  </defs>

  <!-- Background -->
  <circle cx="100" cy="100" r="100" fill="url(#bgGrad4)"/>

  <!-- Content clipped to circle -->
  <g clip-path="url(#circleClip4)">
    <!-- Head - Female, professional bun -->
    <ellipse cx="100" cy="82" rx="34" ry="38" fill="#1e293b"/>
    <!-- Hair bun -->
    <circle cx="100" cy="50" r="18" fill="#1e293b"/>
    <path d="M 66 70 Q 60 55 68 45 Q 80 35 100 32" fill="#1e293b"/>
    <path d="M 134 70 Q 140 55 132 45 Q 120 35 100 32" fill="#1e293b"/>
    <!-- Shoulders - scrubs -->
    <path d="M 35 160 Q 60 135 100 130 Q 140 135 165 160 L 175 200 L 25 200 Z" fill="#1e293b"/>
    <!-- Scrub v-neck -->
    <path d="M 80 140 L 100 160 L 120 140" fill="none" stroke="#f5f5f0" stroke-width="2" opacity="0.3"/>
    <!-- Stethoscope -->
    <path d="M 75 150 Q 70 165 80 175" fill="none" stroke="#b8956c" stroke-width="2"/>
    <circle cx="80" cy="178" r="5" fill="none" stroke="#b8956c" stroke-width="1.5"/>
  </g>

  <!-- Border ring -->
  <circle cx="100" cy="100" r="92" fill="none" stroke="#b8956c" stroke-width="2.5"/>

  <!-- Medical cross accent -->
  <g transform="translate(160, 160)">
    <circle r="15" fill="#b8956c"/>
    <rect x="-6" y="-2" width="12" height="4" fill="#ffffff"/>
    <rect x="-2" y="-6" width="4" height="12" fill="#ffffff"/>
  </g>
</svg>
